<svg width="9" height="53" viewBox="0 0 9 53" fill="none" xmlns="http://www.w3.org/2000/svg">
<path d="M4.14645 52.8536C4.34171 53.0488 4.65829 53.0488 4.85355 52.8536L8.03553 49.6716C8.2308 49.4763 8.2308 49.1597 8.03553 48.9645C7.84027 48.7692 7.52369 48.7692 7.32843 48.9645L4.5 51.7929L1.67157 48.9645C1.47631 48.7692 1.15973 48.7692 0.964466 48.9645C0.769204 49.1597 0.769204 49.4763 0.964466 49.6716L4.14645 52.8536ZM4 0V3.28125H5V0H4ZM4 9.84375V16.4062H5V9.84375H4ZM4 22.9688V29.5312H5V22.9688H4ZM4 36.0938V42.6562H5V36.0938H4ZM4 49.2188V52.5H5V49.2188H4Z" fill="#99CAFE"/>
</svg>
