<svg width="9" height="1047" viewBox="0 0 9 1047" fill="none" xmlns="http://www.w3.org/2000/svg">
<path d="M4.14645 1046.35C4.34171 1046.55 4.65829 1046.55 4.85355 1046.35L8.03553 1043.17C8.2308 1042.98 8.2308 1042.66 8.03553 1042.46C7.84027 1042.27 7.52369 1042.27 7.32843 1042.46L4.5 1045.29L1.67157 1042.46C1.47631 1042.27 1.15973 1042.27 0.964466 1042.46C0.769204 1042.66 0.769204 1042.98 0.964466 1043.17L4.14645 1046.35ZM4 0V3.00575H5V0H4ZM4 9.01724V15.0287H5V9.01724H4ZM4 21.0402V27.0517H5V21.0402H4ZM4 33.0632V39.0747H5V33.0632H4ZM4 45.0862V51.0977H5V45.0862H4ZM4 57.1092V63.1207H5V57.1092H4ZM4 69.1322V75.1437H5V69.1322H4ZM4 81.1552V87.1667H5V81.1552H4ZM4 93.1782V99.1897H5V93.1782H4ZM4 105.201V111.213H5V105.201H4ZM4 117.224V123.236H5V117.224H4ZM4 129.247V135.259H5V129.247H4ZM4 141.27V147.282H5V141.27H4ZM4 153.293V159.305H5V153.293H4ZM4 165.316V171.328H5V165.316H4ZM4 177.339V183.351H5V177.339H4ZM4 189.362V195.374H5V189.362H4ZM4 201.385V207.397H5V201.385H4ZM4 213.408V219.419H5V213.408H4ZM4 225.431V231.442H5V225.431H4ZM4 237.454V243.465H5V237.454H4ZM4 249.477V255.488H5V249.477H4ZM4 261.5V267.511H5V261.5H4ZM4 273.523V279.534H5V273.523H4ZM4 285.546V291.557H5V285.546H4ZM4 297.569V303.58H5V297.569H4ZM4 309.592V315.603H5V309.592H4ZM4 321.615V327.626H5V321.615H4ZM4 333.638V339.65H5V333.638H4ZM4 345.661V351.673H5V345.661H4ZM4 357.684V363.696H5V357.684H4ZM4 369.707V375.719H5V369.707H4ZM4 381.73V387.742H5V381.73H4ZM4 393.753V399.765H5V393.753H4ZM4 405.776V411.788H5V405.776H4ZM4 417.799V423.811H5V417.799H4ZM4 429.822V435.834H5V429.822H4ZM4 441.845V447.857H5V441.845H4ZM4 453.868V459.88H5V453.868H4ZM4 465.891V471.903H5V465.891H4ZM4 477.914V483.926H5V477.914H4ZM4 489.937V495.949H5V489.937H4ZM4 501.96V507.972H5V501.96H4ZM4 513.983V519.995H5V513.983H4ZM4 526.006V532.018H5V526.006H4ZM4 538.029V544.041H5V538.029H4ZM4 550.052V556.063H5V550.052H4ZM4 562.075V568.086H5V562.075H4ZM4 574.098V580.109H5V574.098H4ZM4 586.121V592.132H5V586.121H4ZM4 598.144V604.155H5V598.144H4ZM4 610.167V616.178H5V610.167H4ZM4 622.19V628.201H5V622.19H4ZM4 634.213V640.224H5V634.213H4ZM4 646.236V652.247H5V646.236H4ZM4 658.259V664.27H5V658.259H4ZM4 670.281V676.293H5V670.281H4ZM4 682.304V688.316H5V682.304H4ZM4 694.327V700.339H5V694.327H4ZM4 706.35V712.362H5V706.35H4ZM4 718.373V724.385H5V718.373H4ZM4 730.396V736.408H5V730.396H4ZM4 742.419V748.431H5V742.419H4ZM4 754.442V760.454H5V754.442H4ZM4 766.465V772.477H5V766.465H4ZM4 778.488V784.5H5V778.488H4ZM4 790.511V796.522H5V790.511H4ZM4 802.534V808.545H5V802.534H4ZM4 814.557V820.568H5V814.557H4ZM4 826.58V832.591H5V826.58H4ZM4 838.603V844.614H5V838.603H4ZM4 850.626V856.637H5V850.626H4ZM4 862.649V868.66H5V862.649H4ZM4 874.672V880.683H5V874.672H4ZM4 886.695V892.706H5V886.695H4ZM4 898.718V904.729H5V898.718H4ZM4 910.74V916.752H5V910.74H4ZM4 922.763V928.775H5V922.763H4ZM4 934.786V940.798H5V934.786H4ZM4 946.809V952.821H5V946.809H4ZM4 958.832V964.844H5V958.832H4ZM4 970.855V976.867H5V970.855H4ZM4 982.878V988.89H5V982.878H4ZM4 994.901V1000.91H5V994.901H4ZM4 1006.92V1012.94H5V1006.92H4ZM4 1018.95V1024.96H5V1018.95H4ZM4 1030.97V1036.98H5V1030.97H4ZM4 1042.99V1046H5V1042.99H4Z" fill="#99CAFE"/>
</svg>
