<svg width="58" height="27" viewBox="0 0 58 27" fill="none" xmlns="http://www.w3.org/2000/svg">
<rect x="4.15765" y="1.35335" width="54" height="15" rx="3.5" transform="rotate(10.3738 4.15765 1.35335)" fill="#EAEDF5"/>
<path d="M14.0882 14.9477C13.3249 14.808 12.6608 14.5034 12.0961 14.0341C11.5329 13.5568 11.1246 12.9657 10.8715 12.2606C10.6276 11.549 10.5791 10.7919 10.7261 9.98925C10.873 9.18659 11.1858 8.49968 11.6645 7.92854C12.1525 7.35097 12.7436 6.94275 13.438 6.70388C14.1338 6.45714 14.8634 6.40363 15.6267 6.54337C16.3979 6.68454 17.0651 6.99374 17.6284 7.47097C18.1931 7.94033 18.5981 8.52685 18.8434 9.23052C19.0887 9.93419 19.1372 10.6913 18.9888 11.5018C18.8404 12.3124 18.5269 13.0032 18.0482 13.5743C17.5695 14.1455 16.9823 14.5544 16.2865 14.8012C15.5921 15.04 14.8594 15.0889 14.0882 14.9477ZM14.2589 14.0152C14.8333 14.1204 15.3733 14.0809 15.8787 13.8969C16.3919 13.7144 16.8238 13.399 17.1742 12.9508C17.5325 12.504 17.7715 11.954 17.891 11.3009C18.012 10.6399 17.9834 10.0409 17.8052 9.50404C17.6362 8.96074 17.3481 8.51354 16.9406 8.16243C16.5332 7.81132 16.0383 7.58247 15.456 7.47587C14.8737 7.36927 14.3298 7.40797 13.8244 7.59197C13.319 7.77598 12.8872 8.09137 12.5288 8.53815C12.1799 8.9785 11.9448 9.52919 11.8238 10.1902C11.7043 10.8434 11.729 11.4416 11.8979 11.9849C12.0747 12.5296 12.3668 12.9775 12.7742 13.3286C13.1895 13.6812 13.6844 13.91 14.2589 14.0152ZM23.307 10.7796L21.9496 10.5311L20.9275 16.1143L19.8533 15.9177L20.8754 10.3345L20.0373 10.181L20.1994 9.29576L21.0375 9.44918L21.1217 8.98883C21.2543 8.26486 21.5357 7.77147 21.9661 7.50867C22.4057 7.23944 23.0387 7.18045 23.865 7.33171L23.7008 8.2288C23.2286 8.14237 22.8769 8.17558 22.6456 8.32843C22.4236 8.47485 22.2737 8.76052 22.1959 9.18546L22.1116 9.64581L23.4691 9.89431L23.307 10.7796ZM27.1917 11.4907L25.8342 11.2422L24.8122 16.8255L23.738 16.6288L24.7601 11.0456L23.922 10.8922L24.0841 10.0069L24.9221 10.1603L25.0064 9.69996C25.1389 8.97599 25.4204 8.4826 25.8507 8.2198C26.2904 7.95057 26.9234 7.89158 27.7496 8.04284L27.5854 8.93993C27.1133 8.8535 26.7615 8.88671 26.5302 9.03956C26.3082 9.18598 26.1584 9.47165 26.0806 9.89659L25.9963 10.3569L27.3537 10.6054L27.1917 11.4907ZM30.0952 8.765L28.4962 17.4998L27.422 17.3032L29.021 8.56837L30.0952 8.765ZM32.2581 10.4175C32.0535 10.38 31.8933 10.2775 31.7776 10.1099C31.6619 9.94236 31.6228 9.75628 31.6602 9.55168C31.6977 9.34708 31.8002 9.18692 31.9678 9.0712C32.1353 8.95549 32.3214 8.91635 32.526 8.95381C32.7228 8.98982 32.8751 9.0909 32.9829 9.25703C33.0986 9.42461 33.1377 9.6107 33.1003 9.8153C33.0628 10.0199 32.9603 10.1801 32.7927 10.2958C32.633 10.4129 32.4548 10.4535 32.2581 10.4175ZM32.5851 11.5631L31.401 18.0316L30.3269 17.835L31.511 11.3665L32.5851 11.5631ZM37.5891 12.3571C38.376 12.5012 38.9695 12.8579 39.3695 13.4272C39.771 13.9887 39.8896 14.718 39.7254 15.6151L39.0274 19.4277L37.9651 19.2332L38.6349 15.574C38.753 14.9288 38.6818 14.4074 38.4211 14.01C38.1618 13.6047 37.7528 13.3509 37.1941 13.2486C36.6275 13.1449 36.1426 13.2391 35.7394 13.5313C35.3441 13.8249 35.0845 14.3101 34.9606 14.9868L34.3059 18.5634L33.2317 18.3667L34.4158 11.8982L35.49 12.0949L35.3215 13.0156C35.5944 12.724 35.9285 12.5208 36.3236 12.4061C36.7266 12.2928 37.1484 12.2765 37.5891 12.3571ZM47.3214 17.3472C47.2839 17.5518 47.2325 17.766 47.1671 17.9899L41.9971 17.0435C41.9197 17.6881 42.0446 18.2274 42.3718 18.6614C42.7083 19.089 43.1599 19.3546 43.7265 19.4584C44.1908 19.5434 44.5958 19.5077 44.9416 19.3514C45.2967 19.1887 45.5703 18.9379 45.7625 18.5989L46.9193 18.8107C46.6324 19.4007 46.1932 19.8449 45.6018 20.1432C45.0119 20.4338 44.3313 20.5084 43.5601 20.3673C42.9463 20.2549 42.4207 20.0163 41.9832 19.6516C41.5536 19.2883 41.2472 18.8296 41.0639 18.2756C40.8821 17.7137 40.8525 17.0983 40.9749 16.4294C41.0974 15.7605 41.3385 15.1987 41.6982 14.7441C42.058 14.2894 42.5023 13.9723 43.0313 13.7926C43.5697 13.6065 44.1536 13.571 44.7831 13.6863C45.3969 13.7986 45.9154 14.0318 46.3386 14.3858C46.7618 14.7398 47.056 15.1759 47.2214 15.6942C47.3961 16.206 47.4294 16.757 47.3214 17.3472ZM46.2529 16.9198C46.3278 16.5106 46.3014 16.1438 46.1737 15.8196C46.0475 15.4874 45.8406 15.2177 45.5532 15.0106C45.2752 14.797 44.9472 14.6557 44.5695 14.5865C44.0265 14.4871 43.5306 14.5753 43.0816 14.8509C42.6405 15.128 42.3362 15.5684 42.1688 16.1722L46.2529 16.9198Z" fill="#6A7695"/>
<rect x="4.15765" y="1.35335" width="54" height="15" rx="3.5" transform="rotate(10.3738 4.15765 1.35335)" stroke="#EAEDF5"/>
</svg>
