<svg width="57" height="25" viewBox="0 0 57 25" fill="none" xmlns="http://www.w3.org/2000/svg">
<rect x="0.378906" y="7.06314" width="55" height="16" rx="4" transform="rotate(-5.66585 0.378906 7.06314)" fill="#E0F7EA"/>
<path d="M14.226 17.8327C13.4538 17.9093 12.7315 17.8001 12.0591 17.505C11.3859 17.202 10.8302 16.7466 10.3921 16.1389C9.96109 15.5225 9.70532 14.8082 9.62476 13.9962C9.5442 13.1842 9.65504 12.4376 9.95726 11.7564C10.2667 11.0665 10.722 10.5109 11.3234 10.0894C11.9239 9.66005 12.6103 9.40705 13.3825 9.33044C14.1627 9.25303 14.8893 9.36584 15.5625 9.66886C16.235 9.96392 16.7863 10.4157 17.2164 11.0242C17.6466 11.6327 17.9024 12.3469 17.9837 13.1669C18.0651 13.9869 17.9546 14.7375 17.6524 15.4186C17.3502 16.0998 16.8988 16.6551 16.2983 17.0845C15.6969 17.5059 15.0062 17.7553 14.226 17.8327ZM14.1324 16.8893C14.7136 16.8317 15.2216 16.6446 15.6565 16.3281C16.0993 16.0109 16.4272 15.5884 16.6401 15.0608C16.8611 14.5324 16.9387 13.9378 16.8732 13.2771C16.8068 12.6084 16.6138 12.0407 16.2942 11.5739C15.9817 11.0985 15.5812 10.7483 15.0926 10.5234C14.604 10.2986 14.0652 10.2154 13.4761 10.2738C12.887 10.3323 12.375 10.5197 11.9401 10.8362C11.5052 11.1527 11.1773 11.5751 10.9564 12.1035C10.7427 12.6231 10.669 13.2173 10.7353 13.886C10.8009 14.5468 10.9899 15.1149 11.3023 15.5904C11.6228 16.0651 12.0273 16.4148 12.5159 16.6397C13.0124 16.8638 13.5513 16.947 14.1324 16.8893ZM22.359 10.2125C23.1551 10.1335 23.824 10.3124 24.3658 10.749C24.9068 11.1777 25.2223 11.8458 25.3123 12.7534L25.695 16.6104L24.6202 16.7171L24.253 13.0152C24.1882 12.3624 23.9756 11.8811 23.6153 11.5711C23.2541 11.2532 22.7909 11.1223 22.2257 11.1784C21.6525 11.2353 21.2126 11.4598 20.9058 11.852C20.607 12.2434 20.4915 12.7814 20.5594 13.4661L20.9184 17.0843L19.8317 17.1921L19.1825 10.6483L20.2692 10.5404L20.3616 11.4719C20.5434 11.1162 20.8083 10.8286 21.1563 10.6092C21.5123 10.389 21.9132 10.2568 22.359 10.2125ZM27.68 7.4899L28.5567 16.3265L27.47 16.4343L26.5933 7.59771L27.68 7.4899ZM30.2153 8.48044C30.0083 8.50097 29.8261 8.4467 29.6686 8.31762C29.511 8.18854 29.422 8.02051 29.4015 7.81352C29.3809 7.60654 29.4352 7.42429 29.5643 7.26678C29.6934 7.10926 29.8614 7.02024 30.0684 6.9997C30.2674 6.97996 30.4417 7.03502 30.5913 7.16489C30.7488 7.29397 30.8378 7.462 30.8583 7.66899C30.8789 7.87597 30.8246 8.05822 30.6955 8.21573C30.5744 8.37246 30.4143 8.46069 30.2153 8.48044ZM30.8462 9.49109L31.4954 16.035L30.4087 16.1428L29.7595 9.5989L30.8462 9.49109ZM35.8747 8.87161C36.6708 8.79263 37.3397 8.97147 37.8815 9.40811C38.4224 9.8368 38.7379 10.5049 38.828 11.4125L39.2106 15.2695L38.1359 15.3761L37.7686 11.6743C37.7039 11.0215 37.4913 10.5402 37.131 10.2302C36.7698 9.91233 36.3066 9.78142 35.7414 9.83749C35.1682 9.89436 34.7282 10.1189 34.4215 10.5111C34.1226 10.9025 34.0072 11.4405 34.0751 12.1252L34.4341 15.7434L33.3474 15.8512L32.6982 9.30735L33.7849 9.19954L33.8773 10.131C34.059 9.77528 34.3239 9.48772 34.672 9.26829C35.028 9.04807 35.4289 8.91584 35.8747 8.87161ZM46.6069 10.9784C46.6274 11.1853 46.6372 11.4054 46.6362 11.6387L41.4059 12.1576C41.5097 12.7985 41.7788 13.2823 42.2131 13.609C42.6547 13.9269 43.1621 14.0575 43.7352 14.0006C44.2049 13.954 44.5844 13.8079 44.8735 13.5621C45.1698 13.3076 45.3635 12.9909 45.4546 12.6121L46.6248 12.496C46.5121 13.1423 46.2127 13.6905 45.7268 14.1407C45.2401 14.5829 44.6066 14.8427 43.8265 14.9201C43.2055 14.9817 42.6344 14.8977 42.1132 14.668C41.6 14.4376 41.1787 14.0814 40.8496 13.5996C40.5196 13.1097 40.321 12.5265 40.2539 11.8498C40.1868 11.1731 40.2633 10.5666 40.4834 10.0303C40.7035 9.49392 41.0429 9.06632 41.5017 8.74747C41.9676 8.41987 42.519 8.22448 43.1559 8.16129C43.7769 8.09969 44.3396 8.18053 44.8441 8.40381C45.3486 8.62709 45.7519 8.96492 46.0541 9.4173C46.3634 9.86093 46.5477 10.3813 46.6069 10.9784ZM45.4619 10.8628C45.4208 10.4489 45.2941 10.1037 45.0818 9.8273C44.8687 9.54295 44.5954 9.34094 44.262 9.22127C43.9357 9.09286 43.5815 9.04761 43.1994 9.08552C42.6501 9.14001 42.1978 9.36175 41.8424 9.75073C41.4951 10.1389 41.3243 10.6463 41.3302 11.2727L45.4619 10.8628Z" fill="#51AD77"/>
</svg>
