<svg width="16" height="18" viewBox="0 0 16 18" fill="none" xmlns="http://www.w3.org/2000/svg">
<path fill-rule="evenodd" clip-rule="evenodd" d="M2.35484 8C2.35484 4.88226 4.88226 2.35484 8 2.35484C11.1177 2.35484 13.6452 4.88226 13.6452 8C13.6452 11.1177 11.1177 13.6452 8 13.6452C4.88226 13.6452 2.35484 11.1177 2.35484 8ZM8 1C4.13401 1 1 4.13401 1 8C1 11.866 4.13401 15 8 15C11.866 15 15 11.866 15 8C15 4.13401 11.866 1 8 1ZM6.25 5.34677C6.68648 5.34677 7.04032 5.70693 7.04032 6.15121C7.04032 6.59549 6.68648 6.95565 6.25 6.95565C5.81352 6.95565 5.45968 6.59549 5.45968 6.15121C5.45968 5.70693 5.81352 5.34677 6.25 5.34677ZM10.4839 6.15121C10.4839 5.70693 10.13 5.34677 9.69355 5.34677C9.25707 5.34677 8.90323 5.70693 8.90323 6.15121C8.90323 6.59549 9.25707 6.95565 9.69355 6.95565C10.13 6.95565 10.4839 6.59549 10.4839 6.15121ZM5.64618 11.2697C6.19782 10.4882 7.05445 10.004 8 10.004C8.94555 10.004 9.80218 10.4882 10.3538 11.2697C10.5696 11.5753 10.9922 11.6482 11.2979 11.4325C11.6036 11.2167 11.6764 10.794 11.4607 10.4884C10.6808 9.38351 9.42842 8.64919 8 8.64919C6.57158 8.64919 5.31918 9.38351 4.5393 10.4884C4.32356 10.794 4.39644 11.2167 4.7021 11.4325C5.00775 11.6482 5.43043 11.5753 5.64618 11.2697Z" fill="#F36F87"/>
</svg>
