<svg width="16" height="18" viewBox="0 0 16 18" fill="none" xmlns="http://www.w3.org/2000/svg">
<path fill-rule="evenodd" clip-rule="evenodd" d="M3.97075 6.21581C3.97075 4.1055 5.77471 2.39476 8 2.39476C10.2253 2.39476 12.0292 4.1055 12.0292 6.21581C12.0292 8.32612 10.2253 10.0369 8 10.0369C5.77471 10.0369 3.97075 8.32612 3.97075 6.21581ZM8 1C4.96243 1 2.5 3.3352 2.5 6.21581C2.5 7.86726 3.30933 9.33944 4.57237 10.2951L3.77046 16.1788C3.68833 16.7814 4.37614 17.2076 4.92512 16.8943L7.95404 15.1658L10.983 16.8943C11.5319 17.2076 12.2197 16.7814 12.1376 16.1788L11.3442 10.3571C12.6549 9.40372 13.5 7.90336 13.5 6.21581C13.5 3.3352 11.0376 1 8 1ZM9.9611 11.0903C9.35195 11.3108 8.69085 11.4316 8 11.4316C7.27594 11.4316 6.58455 11.2989 5.95141 11.0578L5.41596 14.9864L7.55907 13.7634C7.80208 13.6247 8.106 13.6247 8.34901 13.7634L10.4921 14.9864L9.9611 11.0903Z" fill="#007BFB"/>
</svg>
