<svg width="12" height="14" viewBox="0 0 12 14" fill="none" xmlns="http://www.w3.org/2000/svg">
<path fill-rule="evenodd" clip-rule="evenodd" d="M1.88583 2C1.88583 1.90795 1.96338 1.83333 2.05906 1.83333H6.70735V3.66667C6.70735 4.49509 7.40536 5.16667 8.2664 5.16667H10.1142V12C10.1142 12.092 10.0366 12.1667 9.94094 12.1667H2.05906C1.96338 12.1667 1.88583 12.092 1.88583 12V2ZM9.15393 3.83333L8.09318 2.79547V3.66667C8.09318 3.75871 8.17073 3.83333 8.2664 3.83333H9.15393ZM2.05906 0.5C1.19801 0.5 0.5 1.17157 0.5 2V12C0.5 12.8284 1.19801 13.5 2.05906 13.5H9.94094C10.802 13.5 11.5 12.8284 11.5 12V4.5C11.5 4.32513 11.4286 4.15726 11.3012 4.03257L7.89433 0.69924C7.76406 0.571785 7.58605 0.5 7.40026 0.5H2.05906ZM3.28609 4.43056C2.96718 4.43056 2.70866 4.67929 2.70866 4.98611C2.70866 5.29294 2.96718 5.54167 3.28609 5.54167H4.84514C5.16405 5.54167 5.42257 5.29294 5.42257 4.98611C5.42257 4.67929 5.16405 4.43056 4.84514 4.43056H3.28609ZM2.69423 7.47222C2.69423 7.1654 2.95275 6.91667 3.27165 6.91667H8.61286C8.93177 6.91667 9.19029 7.1654 9.19029 7.47222C9.19029 7.77905 8.93177 8.02778 8.61286 8.02778H3.27165C2.95275 8.02778 2.69423 7.77905 2.69423 7.47222ZM3.27165 9.5C2.95275 9.5 2.69423 9.74873 2.69423 10.0556C2.69423 10.3624 2.95275 10.6111 3.27165 10.6111H8.61286C8.93177 10.6111 9.19029 10.3624 9.19029 10.0556C9.19029 9.74873 8.93177 9.5 8.61286 9.5H3.27165Z" fill="#082A60"/>
</svg>
