<svg width="154" height="108" viewBox="0 0 154 108" fill="none" xmlns="http://www.w3.org/2000/svg">
<rect width="142" height="96" transform="translate(6 6)" fill="#F5F5F5"/>
<path d="M47.3125 66.552H31.7445L29.1685 74H20.9365L34.9925 34.856H44.1205L58.1765 74H49.8885L47.3125 66.552ZM45.1845 60.28L39.5285 43.928L33.8725 60.28H45.1845ZM61.4144 58.376C61.4144 55.24 62.0304 52.4587 63.2624 50.032C64.5317 47.6053 66.2304 45.7387 68.3584 44.432C70.5237 43.1253 72.9317 42.472 75.5824 42.472C77.8971 42.472 79.9131 42.9387 81.6304 43.872C83.3851 44.8053 84.7851 45.9813 85.8304 47.4V42.976H93.7264V74H85.8304V69.464C84.8224 70.92 83.4224 72.1333 81.6304 73.104C79.8757 74.0373 77.8411 74.504 75.5264 74.504C72.9131 74.504 70.5237 73.832 68.3584 72.488C66.2304 71.144 64.5317 69.2587 63.2624 66.832C62.0304 64.368 61.4144 61.5493 61.4144 58.376ZM85.8304 58.488C85.8304 56.584 85.4571 54.96 84.7104 53.616C83.9637 52.2347 82.9557 51.1893 81.6864 50.48C80.4171 49.7333 79.0544 49.36 77.5984 49.36C76.1424 49.36 74.7984 49.7147 73.5664 50.424C72.3344 51.1333 71.3264 52.1787 70.5424 53.56C69.7957 54.904 69.4224 56.5093 69.4224 58.376C69.4224 60.2427 69.7957 61.8853 70.5424 63.304C71.3264 64.6853 72.3344 65.7493 73.5664 66.496C74.8357 67.2427 76.1797 67.616 77.5984 67.616C79.0544 67.616 80.4171 67.2613 81.6864 66.552C82.9557 65.8053 83.9637 64.76 84.7104 63.416C85.4571 62.0347 85.8304 60.392 85.8304 58.488Z" fill="#060545"/>
<rect x="71" y="34.5" width="64" height="6" fill="#E9E9E9"/>
<rect x="99" y="45.5" width="36" height="6" fill="#E9E9E9"/>
<rect x="99" y="56.5" width="36" height="6" fill="#E9E9E9"/>
<rect x="99" y="67.5" width="36" height="6" fill="#E9E9E9"/>
<rect y="15" width="154" height="1" fill="#D9D9D9"/>
<rect y="92" width="154" height="1" fill="#D9D9D9"/>
<rect x="15" width="1" height="108" fill="#D9D9D9"/>
<rect x="138" width="1" height="108" fill="#D9D9D9"/>
</svg>
