<svg width="24" height="24" viewBox="0 0 24 24" fill="none" xmlns="http://www.w3.org/2000/svg">
<path d="M18.9999 3.05H18.1699V2C18.1699 1.80109 18.0908 1.61032 17.9502 1.46967C17.8095 1.32902 17.6188 1.25 17.4199 1.25C17.221 1.25 17.0302 1.32902 16.8895 1.46967C16.7489 1.61032 16.6699 1.80109 16.6699 2V3H7.35987V2C7.35987 1.80109 7.28085 1.61032 7.1402 1.46967C6.99954 1.32902 6.80878 1.25 6.60987 1.25C6.41095 1.25 6.22019 1.32902 6.07954 1.46967C5.93888 1.61032 5.85987 1.80109 5.85987 2V3H4.99987C4.50486 3.0026 4.01526 3.10317 3.55932 3.29592C3.10338 3.48868 2.69011 3.7698 2.34335 4.12306C1.99659 4.47633 1.7232 4.89475 1.53896 5.3542C1.35471 5.81365 1.26326 6.30503 1.26987 6.8V19C1.27512 19.9876 1.66979 20.9333 2.36816 21.6317C3.06654 22.3301 4.01223 22.7247 4.99987 22.73H18.9999C19.9875 22.7247 20.9332 22.3301 21.6316 21.6317C22.3299 20.9333 22.7246 19.9876 22.7299 19V6.8C22.7299 5.80889 22.3375 4.85808 21.6386 4.1554C20.9397 3.45271 19.991 3.05529 18.9999 3.05ZM4.99987 4.55H5.83987V5.38C5.83987 5.57891 5.91888 5.76968 6.05954 5.91033C6.20019 6.05098 6.39095 6.13 6.58987 6.13C6.78878 6.13 6.97954 6.05098 7.1202 5.91033C7.26085 5.76968 7.33987 5.57891 7.33987 5.38V4.55H16.6299V5.38C16.6299 5.57891 16.7089 5.76968 16.8495 5.91033C16.9902 6.05098 17.181 6.13 17.3799 6.13C17.5788 6.13 17.7695 6.05098 17.9102 5.91033C18.0508 5.76968 18.1299 5.57891 18.1299 5.38V4.55H18.9999C19.5931 4.55527 20.1603 4.79465 20.5779 5.21604C20.9956 5.63743 21.2299 6.20671 21.2299 6.8V6.93H2.76987V6.8C2.76984 6.20671 3.00415 5.63743 3.42179 5.21604C3.83943 4.79465 4.4066 4.55527 4.99987 4.55ZM18.9999 21.23H4.99987C4.41005 21.2248 3.84587 20.9882 3.42879 20.5711C3.01171 20.154 2.77509 19.5898 2.76987 19V8.43H21.2299V19C21.2246 19.5898 20.988 20.154 20.5709 20.5711C20.1539 20.9882 19.5897 21.2248 18.9999 21.23Z" fill="#565A69"/>
<path d="M7.4801 13.5902C7.58601 13.5902 7.69086 13.5692 7.78858 13.5284C7.88629 13.4875 7.97493 13.4277 8.04935 13.3524C8.12377 13.277 8.18249 13.1876 8.2221 13.0894C8.26171 12.9912 8.28143 12.8861 8.2801 12.7802C8.2813 12.5674 8.19868 12.3626 8.0501 12.2102C7.97481 12.1343 7.88523 12.0741 7.78654 12.033C7.68786 11.9919 7.58201 11.9707 7.4751 11.9707C7.3682 11.9707 7.26235 11.9919 7.16366 12.033C7.06497 12.0741 6.9754 12.1343 6.9001 12.2102C6.75152 12.3626 6.6689 12.5674 6.6701 12.7802C6.66783 12.8858 6.68705 12.9908 6.72659 13.0888C6.76613 13.1868 6.82516 13.2757 6.9001 13.3502C6.97488 13.4282 7.06505 13.4898 7.16489 13.5311C7.26474 13.5724 7.37207 13.5926 7.4801 13.5902Z" fill="#565A69"/>
<path d="M11.9997 13.5898C12.1062 13.592 12.212 13.5718 12.3102 13.5304C12.4084 13.4891 12.4968 13.4275 12.5697 13.3498C12.6479 13.2773 12.7098 13.189 12.7512 13.0907C12.7926 12.9924 12.8125 12.8864 12.8097 12.7798C12.8107 12.6735 12.7899 12.568 12.7486 12.47C12.7074 12.372 12.6465 12.2834 12.5697 12.2098C12.4943 12.1375 12.4047 12.0815 12.3066 12.0454C12.2085 12.0093 12.1041 11.9937 11.9997 11.9998C11.7857 12.0024 11.5812 12.0886 11.4298 12.2399C11.2785 12.3913 11.1923 12.5958 11.1897 12.8098C11.1869 12.9164 11.2068 13.0224 11.2482 13.1207C11.2896 13.219 11.3515 13.3073 11.4297 13.3798C11.5059 13.4512 11.5955 13.5065 11.6934 13.5426C11.7913 13.5787 11.8955 13.5947 11.9997 13.5898Z" fill="#565A69"/>
<path d="M16.5003 13.5902C16.6083 13.5926 16.7156 13.5724 16.8155 13.5311C16.9153 13.4898 17.0055 13.4282 17.0803 13.3502C17.1552 13.2757 17.2142 13.1868 17.2538 13.0888C17.2933 12.9908 17.3125 12.8858 17.3103 12.7802C17.3115 12.5674 17.2288 12.3626 17.0803 12.2102C17.005 12.1343 16.9154 12.0741 16.8167 12.033C16.718 11.9919 16.6122 11.9707 16.5053 11.9707C16.3984 11.9707 16.2925 11.9919 16.1938 12.033C16.0951 12.0741 16.0056 12.1343 15.9303 12.2102C15.7817 12.3626 15.6991 12.5674 15.7003 12.7802C15.6989 12.8861 15.7186 12.9912 15.7583 13.0894C15.7979 13.1876 15.8566 13.277 15.931 13.3524C16.0054 13.4277 16.0941 13.4875 16.1918 13.5284C16.2895 13.5692 16.3944 13.5902 16.5003 13.5902Z" fill="#565A69"/>
<path d="M7.49963 15.8498C7.39161 15.8474 7.28427 15.8676 7.18443 15.9089C7.08458 15.9502 6.99441 16.0118 6.91963 16.0898C6.77105 16.2422 6.68843 16.447 6.68963 16.6598C6.68737 16.7654 6.70658 16.8704 6.74612 16.9684C6.78566 17.0664 6.84469 17.1553 6.91963 17.2298C6.99493 17.3057 7.0845 17.3659 7.18319 17.407C7.28188 17.4481 7.38773 17.4693 7.49463 17.4693C7.60154 17.4693 7.70739 17.4481 7.80607 17.407C7.90476 17.3659 7.99434 17.3057 8.06963 17.2298C8.14458 17.1553 8.20361 17.0664 8.24315 16.9684C8.28268 16.8704 8.3019 16.7654 8.29963 16.6598C8.30083 16.447 8.21821 16.2422 8.06963 16.0898C7.99601 16.013 7.90746 15.9522 7.80944 15.9109C7.71141 15.8696 7.60599 15.8488 7.49963 15.8498Z" fill="#565A69"/>
<path d="M12.0495 15.8498C11.8355 15.8524 11.631 15.9385 11.4796 16.0899C11.3283 16.2412 11.2421 16.4457 11.2395 16.6598C11.2367 16.7664 11.2566 16.8724 11.298 16.9707C11.3394 17.069 11.4013 17.1573 11.4795 17.2298C11.5531 17.3065 11.6417 17.3674 11.7397 17.4087C11.8377 17.45 11.9432 17.4707 12.0495 17.4698C12.156 17.472 12.2618 17.4517 12.36 17.4104C12.4582 17.369 12.5466 17.3075 12.6195 17.2298C12.6978 17.1573 12.7596 17.069 12.801 16.9707C12.8424 16.8724 12.8623 16.7664 12.8595 16.6598C12.8605 16.5534 12.8397 16.448 12.7984 16.35C12.7572 16.2519 12.6963 16.1634 12.6195 16.0898C12.5466 16.012 12.4582 15.9505 12.36 15.9092C12.2618 15.8678 12.156 15.8476 12.0495 15.8498Z" fill="#565A69"/>
<path d="M16.5198 15.8498C16.4134 15.8488 16.308 15.8696 16.21 15.9109C16.112 15.9522 16.0234 16.013 15.9498 16.0898C15.8012 16.2422 15.7186 16.447 15.7198 16.6598C15.7185 16.7657 15.7382 16.8708 15.7778 16.969C15.8174 17.0672 15.8761 17.1566 15.9505 17.232C16.025 17.3073 16.1136 17.3671 16.2113 17.408C16.309 17.4488 16.4139 17.4698 16.5198 17.4698C16.6278 17.4721 16.7352 17.452 16.835 17.4107C16.9348 17.3694 17.025 17.3078 17.0998 17.2298C17.1747 17.1553 17.2338 17.0664 17.2733 16.9684C17.3128 16.8704 17.3321 16.7654 17.3298 16.6598C17.331 16.447 17.2484 16.2422 17.0998 16.0898C17.025 16.0118 16.9348 15.9502 16.835 15.9089C16.7352 15.8676 16.6278 15.8474 16.5198 15.8498Z" fill="#565A69"/>
</svg>
