<svg width="24" height="24" viewBox="0 0 24 24" fill="none" xmlns="http://www.w3.org/2000/svg">
<path d="M20 6.23983C19.8055 6.20742 19.606 6.2519 19.4436 6.36385C19.2813 6.47581 19.1688 6.64649 19.13 6.83983L16.78 19.7098C16.6744 20.1573 16.4179 20.5547 16.0536 20.8352C15.6893 21.1157 15.2396 21.2621 14.78 21.2498H9.12998C8.66771 21.274 8.21204 21.132 7.84527 20.8496C7.4785 20.5672 7.2248 20.1629 7.12998 19.7098L4.83998 6.83983C4.79912 6.65355 4.6906 6.48906 4.53541 6.37822C4.38023 6.26738 4.18944 6.21806 3.99998 6.23983C3.80664 6.27866 3.63597 6.39113 3.52401 6.55347C3.41205 6.7158 3.36758 6.9153 3.39998 7.10983L5.69998 19.9998C5.85656 20.7911 6.28542 21.5025 6.91205 22.0103C7.53868 22.5182 8.32345 22.7905 9.12998 22.7798H14.83C15.6365 22.7905 16.4213 22.5182 17.0479 22.0103C17.6745 21.5025 18.1034 20.7911 18.26 19.9998L20.6 7.10983C20.6324 6.9153 20.5879 6.7158 20.476 6.55347C20.364 6.39113 20.1933 6.27866 20 6.23983Z" fill="#565A69"/>
<path d="M21.9998 3.54023H15.5898V2.90023C15.5898 2.45998 15.4149 2.03775 15.1036 1.72644C14.7923 1.41513 14.3701 1.24023 13.9298 1.24023H9.99983C9.56479 1.2481 9.15023 1.42646 8.84538 1.73692C8.54053 2.04738 8.36976 2.46512 8.36983 2.90023V3.54023H1.99983C1.83534 3.579 1.68876 3.67219 1.58386 3.80469C1.47895 3.93719 1.42188 4.10123 1.42188 4.27023C1.42188 4.43923 1.47895 4.60328 1.58386 4.73578C1.68876 4.86828 1.83534 4.96147 1.99983 5.00023H21.9998C22.1987 5.00023 22.3895 4.92122 22.5302 4.78056C22.6708 4.63991 22.7498 4.44915 22.7498 4.25023C22.7498 4.05132 22.6708 3.86056 22.5302 3.7199C22.3895 3.57925 22.1987 3.50023 21.9998 3.50023V3.54023ZM9.86983 2.90023C9.86916 2.86252 9.88184 2.82578 9.90563 2.79651C9.92941 2.76723 9.96278 2.7473 9.99983 2.74023H13.8998C13.9208 2.74023 13.9416 2.74437 13.9611 2.75241C13.9805 2.76045 13.9981 2.77224 14.013 2.7871C14.0278 2.80195 14.0396 2.81959 14.0476 2.839C14.0557 2.85842 14.0598 2.87922 14.0598 2.90023V3.54023H9.86983V2.90023Z" fill="#565A69"/>
<path d="M9 12.8599H15C15.1989 12.8599 15.3897 12.7808 15.5303 12.6402C15.671 12.4995 15.75 12.3088 15.75 12.1099C15.75 11.911 15.671 11.7202 15.5303 11.5795C15.3897 11.4389 15.1989 11.3599 15 11.3599H9C8.80109 11.3599 8.61032 11.4389 8.46967 11.5795C8.32902 11.7202 8.25 11.911 8.25 12.1099C8.25 12.3088 8.32902 12.4995 8.46967 12.6402C8.61032 12.7808 8.80109 12.8599 9 12.8599Z" fill="#565A69"/>
<path d="M9 15.71H13.84C14.0389 15.71 14.2297 15.6309 14.3703 15.4903C14.511 15.3496 14.59 15.1589 14.59 14.96C14.59 14.761 14.511 14.5703 14.3703 14.4296C14.2297 14.289 14.0389 14.21 13.84 14.21H9C8.80109 14.21 8.61032 14.289 8.46967 14.4296C8.32902 14.5703 8.25 14.761 8.25 14.96C8.25 15.1589 8.32902 15.3496 8.46967 15.4903C8.61032 15.6309 8.80109 15.71 9 15.71Z" fill="#565A69"/>
</svg>
