<svg width="24" height="24" viewBox="0 0 24 24" fill="none" xmlns="http://www.w3.org/2000/svg">
<path fill-rule="evenodd" clip-rule="evenodd" d="M13.367 3.35683C12.5806 2.68275 11.4201 2.68275 10.6337 3.35683L3.40159 9.55575C2.83177 10.0442 2.56591 10.7995 2.70422 11.5372L4.17607 19.387C4.3623 20.3803 5.22955 21.1 6.2401 21.1H11.1003L11.1003 17.5C11.1003 17.003 11.5033 16.6 12.0003 16.6C12.4974 16.6 12.9003 17.003 12.9003 17.5L12.9003 21.1H17.7605C18.7711 21.1 19.6383 20.3803 19.8246 19.387L21.2964 11.5372C21.4347 10.7995 21.1689 10.0442 20.599 9.55575L13.367 3.35683ZM9.46223 1.99017C10.9227 0.738303 13.0779 0.738303 14.5384 1.99017L21.7705 8.18908C22.8287 9.09615 23.3224 10.499 23.0656 11.8689L21.5937 19.7188C21.2479 21.5634 19.6373 22.9 17.7605 22.9H6.2401C4.36336 22.9 2.75276 21.5634 2.4069 19.7188L0.935051 11.8689C0.678193 10.499 1.17193 9.09615 2.23017 8.18908L9.46223 1.99017Z" fill="#565A69"/>
</svg>
