<svg width="24" height="24" viewBox="0 0 24 24" fill="none" xmlns="http://www.w3.org/2000/svg">
<path d="M20.7002 14.8098L19.9402 13.8098C19.3516 12.7767 19.1295 11.575 19.3102 10.3998C19.3102 10.1098 19.3102 9.8298 19.3102 9.5398V8.6998C19.3102 5.4998 17.3102 3.2598 14.0302 2.6098C13.8777 2.20459 13.6037 1.85642 13.2457 1.61297C12.8876 1.36951 12.4631 1.24266 12.0302 1.2498C11.5976 1.24411 11.1738 1.37153 10.816 1.6148C10.4583 1.85807 10.184 2.20542 10.0302 2.6098C6.77022 3.2598 4.76022 5.5098 4.76022 8.6998V9.5198C4.76022 9.8098 4.76022 10.0898 4.76022 10.3798C4.94091 11.555 4.71889 12.7567 4.13022 13.7898L3.37022 14.7898C2.87378 15.4694 2.60433 16.2882 2.60022 17.1298V17.5098C2.58959 17.9701 2.71733 18.423 2.96693 18.8098C3.21652 19.1967 3.57648 19.4998 4.00022 19.6798C5.51594 20.243 7.10633 20.58 8.72022 20.6798C8.98398 21.2982 9.42364 21.8254 9.98456 22.196C10.5455 22.5665 11.2029 22.7641 11.8752 22.7641C12.5475 22.7641 13.205 22.5665 13.7659 22.196C14.3268 21.8254 14.7665 21.2982 15.0302 20.6798C16.7378 20.6008 18.4236 20.2636 20.0302 19.6798C20.4564 19.5057 20.8205 19.2077 21.0754 18.8244C21.3303 18.4411 21.4644 17.9901 21.4602 17.5298V17.1498C21.459 16.3093 21.1931 15.4906 20.7002 14.8098ZM11.8402 21.2498C11.3761 21.2377 10.9306 21.0644 10.5802 20.7598C11.0302 20.7598 11.4902 20.7598 11.9902 20.7598H13.0902C12.7461 21.0682 12.3023 21.2422 11.8402 21.2498ZM20.0002 17.5298C20.0026 17.692 19.9561 17.8511 19.867 17.9866C19.7778 18.1221 19.6501 18.2277 19.5002 18.2898C18.6002 18.6598 16.4302 19.2898 12.0302 19.2898C7.63022 19.2898 5.46022 18.6698 4.56022 18.2898C4.41037 18.2277 4.2826 18.1221 4.19345 17.9866C4.10431 17.8511 4.05789 17.692 4.06022 17.5298V17.1498C4.06022 16.6305 4.22865 16.1252 4.54022 15.7098L5.30022 14.7098C6.10312 13.4108 6.42843 11.8727 6.22022 10.3598C6.22022 10.0898 6.22022 9.8098 6.22022 9.5398V8.6998C6.22022 5.7498 8.45022 3.9098 12.0402 3.9098C15.6302 3.9098 17.8602 5.7498 17.8602 8.6998V9.5198C17.8602 9.7898 17.8602 10.0698 17.8602 10.3398C17.652 11.8527 17.9773 13.3908 18.7802 14.6898L19.5402 15.6898C19.8475 16.1139 20.0089 16.6262 20.0002 17.1498V17.5298Z" fill="#565A69"/>
</svg>
