<svg width="24" height="24" viewBox="0 0 24 24" fill="none" xmlns="http://www.w3.org/2000/svg">
<path d="M10.13 12.4002C9.07544 12.4022 8.04396 12.0913 7.16613 11.5068C6.2883 10.9224 5.60359 10.0906 5.19864 9.11687C4.79369 8.14311 4.68671 7.07112 4.89124 6.03654C5.09577 5.00196 5.60261 4.05131 6.34763 3.3049C7.09264 2.55848 8.04234 2.04986 9.07653 1.84339C10.1107 1.63691 11.1829 1.74188 12.1574 2.145C13.1319 2.54812 13.965 3.23127 14.5511 4.108C15.1372 4.98473 15.45 6.01563 15.45 7.07023C15.45 8.4821 14.8899 9.83629 13.8925 10.8356C12.8951 11.8349 11.5419 12.3976 10.13 12.4002ZM10.13 3.25023C9.37387 3.25813 8.63695 3.4897 8.01219 3.91576C7.38742 4.34182 6.90276 4.9433 6.6193 5.64438C6.33584 6.34546 6.26627 7.11476 6.41935 7.85532C6.57243 8.59588 6.94131 9.27455 7.4795 9.80579C8.01769 10.337 8.7011 10.6971 9.44359 10.8405C10.1861 10.9839 10.9544 10.9044 11.6517 10.6118C12.3491 10.3193 12.9442 9.82681 13.3621 9.19656C13.78 8.5663 14.002 7.82644 14 7.07023C13.9987 6.56472 13.8974 6.06448 13.7018 5.59833C13.5063 5.13218 13.2204 4.70936 12.8606 4.35425C12.5008 3.99913 12.0743 3.71875 11.6057 3.52927C11.137 3.33978 10.6355 3.24495 10.13 3.25023Z" fill="#565A69"/>
<path d="M10.13 22.25C5.07 22.25 1.25 20.31 1.25 17.73C1.25 15.15 5.07 13.21 10.13 13.21C15.19 13.21 19 15.15 19 17.73C19 20.31 15.19 22.25 10.13 22.25ZM10.13 14.71C5.78 14.71 2.75 16.3 2.75 17.71C2.75 19.12 5.75 20.71 10.13 20.71C14.51 20.71 17.51 19.12 17.51 17.71C17.51 16.3 14.48 14.71 10.13 14.71Z" fill="#565A69"/>
<path d="M15.5801 12.4699C15.3812 12.4699 15.1904 12.3908 15.0497 12.2502C14.9091 12.1095 14.8301 11.9188 14.8301 11.7199C14.8301 11.5209 14.9091 11.3302 15.0497 11.1895C15.1904 11.0489 15.3812 10.9699 15.5801 10.9699C16.2668 10.9699 16.9307 10.7228 17.4503 10.2738C17.9699 9.82477 18.3106 9.20374 18.4101 8.52422C18.5096 7.8447 18.3613 7.15207 17.9922 6.5729C17.6232 5.99373 17.058 5.5667 16.4001 5.36985C16.2091 5.31283 16.0486 5.18229 15.9539 5.00694C15.8592 4.8316 15.8381 4.62581 15.8951 4.43485C15.9521 4.2439 16.0826 4.08342 16.258 3.98871C16.4333 3.894 16.6391 3.87283 16.8301 3.92985C17.8355 4.22806 18.6997 4.87865 19.2643 5.76235C19.829 6.64606 20.0562 7.70368 19.9043 8.74131C19.7524 9.77895 19.2316 10.7271 18.4374 11.4119C17.6432 12.0967 16.6288 12.4723 15.5801 12.4699Z" fill="#565A69"/>
<path d="M19.9997 19.43C19.8534 19.4305 19.71 19.3882 19.5874 19.3082C19.4648 19.2283 19.3683 19.1142 19.3097 18.98C19.2667 18.8898 19.2424 18.7917 19.2384 18.6919C19.2343 18.592 19.2505 18.4923 19.286 18.3988C19.3215 18.3054 19.3756 18.2201 19.445 18.1481C19.5144 18.0761 19.5976 18.0189 19.6897 17.98C20.6897 17.55 21.2397 16.98 21.2397 16.5C21.2397 15.82 20.0797 14.91 17.8597 14.5C17.7637 14.482 17.6721 14.4452 17.5904 14.3917C17.5086 14.3381 17.4383 14.2689 17.3834 14.188C17.3286 14.1071 17.2903 14.0162 17.2708 13.9204C17.2512 13.8246 17.2509 13.7259 17.2697 13.63C17.2852 13.5324 17.3204 13.439 17.3731 13.3554C17.4258 13.2718 17.4949 13.1998 17.5762 13.1437C17.6576 13.0876 17.7495 13.0486 17.8463 13.0291C17.9432 13.0095 18.043 13.0099 18.1397 13.03C20.9797 13.57 22.7397 14.91 22.7397 16.52C22.7397 17.66 21.8697 18.67 20.2997 19.37C20.2045 19.4091 20.1027 19.4295 19.9997 19.43Z" fill="#565A69"/>
</svg>
