<svg width="24" height="24" viewBox="0 0 24 24" fill="none" xmlns="http://www.w3.org/2000/svg">
<path d="M19.0004 19.7802H5.00035C4.50452 19.7816 4.01335 19.6846 3.55525 19.4948C3.09716 19.3051 2.68124 19.0264 2.33156 18.6749C1.98188 18.3233 1.70539 17.9059 1.51809 17.4468C1.33079 16.9877 1.23639 16.496 1.24035 16.0002V8.00023C1.23639 7.50441 1.33079 7.01273 1.51809 6.55363C1.70539 6.09454 1.98188 5.67714 2.33156 5.32561C2.68124 4.97407 3.09716 4.69537 3.55525 4.50563C4.01335 4.3159 4.50452 4.21889 5.00035 4.22023H19.0004C19.4962 4.21889 19.9874 4.3159 20.4455 4.50563C20.9036 4.69537 21.3195 4.97407 21.6691 5.32561C22.0188 5.67714 22.2953 6.09454 22.4826 6.55363C22.6699 7.01273 22.7643 7.50441 22.7604 8.00023V16.0002C22.7643 16.496 22.6699 16.9877 22.4826 17.4468C22.2953 17.9059 22.0188 18.3233 21.6691 18.6749C21.3195 19.0264 20.9036 19.3051 20.4455 19.4948C19.9874 19.6846 19.4962 19.7816 19.0004 19.7802ZM5.00035 5.72023C4.7015 5.71887 4.40537 5.77707 4.12925 5.89142C3.85313 6.00577 3.60256 6.17399 3.39217 6.38624C3.18178 6.59849 3.01578 6.85054 2.90387 7.12765C2.79195 7.40476 2.73637 7.7014 2.74035 8.00023V16.0002C2.73637 16.2991 2.79195 16.5957 2.90387 16.8728C3.01578 17.1499 3.18178 17.402 3.39217 17.6142C3.60256 17.8265 3.85313 17.9947 4.12925 18.109C4.40537 18.2234 4.7015 18.2816 5.00035 18.2802H19.0004C19.2992 18.2816 19.5953 18.2234 19.8715 18.109C20.1476 17.9947 20.3981 17.8265 20.6085 17.6142C20.8189 17.402 20.9849 17.1499 21.0968 16.8728C21.2088 16.5957 21.2643 16.2991 21.2604 16.0002V8.00023C21.2643 7.7014 21.2088 7.40476 21.0968 7.12765C20.9849 6.85054 20.8189 6.59849 20.6085 6.38624C20.3981 6.17399 20.1476 6.00577 19.8715 5.89142C19.5953 5.77707 19.2992 5.71887 19.0004 5.72023H5.00035Z" fill="#565A69"/>
<path d="M12.4599 11.9636C12.2004 11.9622 11.9482 11.8781 11.7399 11.7236L5.39985 8.41361C5.22626 8.32196 5.09551 8.16591 5.03568 7.97894C4.97585 7.79198 4.99171 7.58901 5.07985 7.41361C5.17336 7.24186 5.32946 7.11277 5.51571 7.05317C5.70196 6.99357 5.90401 7.00805 6.07985 7.09361L12.4599 10.3936L18.8599 7.08361C19.0375 6.99211 19.2443 6.97495 19.4347 7.0359C19.625 7.09684 19.7834 7.23091 19.8749 7.40861C19.9664 7.5863 19.9835 7.79307 19.9226 7.98342C19.8616 8.17377 19.7275 8.33211 19.5499 8.42361L13.1699 11.7036C12.9667 11.8633 12.7181 11.9543 12.4599 11.9636Z" fill="#565A69"/>
</svg>
