<svg width="24" height="24" viewBox="0 0 24 24" fill="none" xmlns="http://www.w3.org/2000/svg">
<rect x="2.25" y="2.25" width="19.5" height="19.5" rx="3.25" stroke="#565A69" stroke-width="1.5"/>
<path d="M17.6196 9.61982H12.3696C11.9596 9.61982 11.6196 9.27982 11.6196 8.86982C11.6196 8.45982 11.9596 8.11982 12.3696 8.11982H17.6196C18.0296 8.11982 18.3696 8.45982 18.3696 8.86982C18.3696 9.27982 18.0396 9.61982 17.6196 9.61982Z" fill="#565A69"/>
<path d="M7.11957 10.3798C6.92957 10.3798 6.73957 10.3098 6.58957 10.1598L5.83957 9.40982C5.54957 9.11982 5.54957 8.63982 5.83957 8.34982C6.12957 8.05982 6.60957 8.05982 6.89957 8.34982L7.11957 8.56982L8.83957 6.84982C9.12957 6.55982 9.60957 6.55982 9.89957 6.84982C10.1896 7.13982 10.1896 7.61982 9.89957 7.90982L7.64957 10.1598C7.50957 10.2998 7.31957 10.3798 7.11957 10.3798Z" fill="#565A69"/>
<path d="M17.6196 16.6198H12.3696C11.9596 16.6198 11.6196 16.2798 11.6196 15.8698C11.6196 15.4598 11.9596 15.1198 12.3696 15.1198H17.6196C18.0296 15.1198 18.3696 15.4598 18.3696 15.8698C18.3696 16.2798 18.0396 16.6198 17.6196 16.6198Z" fill="#565A69"/>
<path d="M7.11957 17.3798C6.92957 17.3798 6.73957 17.3098 6.58957 17.1598L5.83957 16.4098C5.54957 16.1198 5.54957 15.6398 5.83957 15.3498C6.12957 15.0598 6.60957 15.0598 6.89957 15.3498L7.11957 15.5698L8.83957 13.8498C9.12957 13.5598 9.60957 13.5598 9.89957 13.8498C10.1896 14.1398 10.1896 14.6198 9.89957 14.9098L7.64957 17.1598C7.50957 17.2998 7.31957 17.3798 7.11957 17.3798Z" fill="#565A69"/>
</svg>
