<svg width="24" height="24" viewBox="0 0 24 24" fill="none" xmlns="http://www.w3.org/2000/svg">
<path d="M11.9996 11.6002C10.9746 11.6022 9.97216 11.3001 9.119 10.7321C8.26584 10.1641 7.60035 9.35581 7.20675 8.40947C6.81316 7.46312 6.70915 6.42128 6.90789 5.4158C7.10663 4.41032 7.59919 3.4864 8.32322 2.76096C9.04726 2.03553 9.97023 1.54119 10.9753 1.3405C11.9804 1.13982 13.0225 1.24182 13.9696 1.63358C14.9167 2.02535 15.7263 2.68927 16.2959 3.54134C16.8655 4.3934 17.1696 5.39529 17.1696 6.42023C17.1669 7.79151 16.6217 9.10602 15.653 10.0766C14.6843 11.0472 13.3708 11.5949 11.9996 11.6002ZM11.9996 2.75023C11.2709 2.74825 10.558 2.96265 9.95132 3.36625C9.34462 3.76985 8.87139 4.34449 8.59162 5.01733C8.31185 5.69017 8.23814 6.43092 8.37981 7.1457C8.52148 7.86048 8.87217 8.51711 9.38743 9.03237C9.90269 9.54763 10.5593 9.89831 11.2741 10.04C11.9889 10.1817 12.7296 10.1079 13.4025 9.82818C14.0753 9.54841 14.6499 9.07518 15.0535 8.46848C15.4572 7.86178 15.6715 7.14891 15.6696 6.42023C15.6696 5.44688 15.2829 4.5134 14.5947 3.82515C13.9064 3.13689 12.9729 2.75023 11.9996 2.75023Z" fill="#565A69"/>
<path d="M21.1403 22.7299C21.0415 22.7313 20.9434 22.7128 20.8518 22.6756C20.7602 22.6384 20.6769 22.5832 20.607 22.5133C20.5371 22.4434 20.4819 22.3601 20.4447 22.2685C20.4075 22.1769 20.389 22.0788 20.3903 21.9799C20.3903 17.6699 16.6203 14.1699 12.0004 14.1699C7.38035 14.1699 3.61035 17.6699 3.61035 21.9999C3.61035 22.1989 3.53133 22.3896 3.39068 22.5303C3.25003 22.6709 3.05926 22.7499 2.86035 22.7499C2.66144 22.7499 2.47067 22.6709 2.33002 22.5303C2.18937 22.3896 2.11035 22.1989 2.11035 21.9999C2.11035 16.8699 6.55035 12.6899 12.0004 12.6899C17.4503 12.6899 21.8903 16.8699 21.8903 21.9999C21.8851 22.1954 21.8038 22.381 21.6637 22.5174C21.5236 22.6537 21.3358 22.73 21.1403 22.7299Z" fill="#565A69"/>
</svg>
