<svg width="233" height="347" viewBox="0 0 233 347" fill="none" xmlns="http://www.w3.org/2000/svg">
<path d="M225.5 161.724L225.998 161.77L225.5 161.724ZM171.049 242.797L170.554 242.869L171.049 242.797ZM196.071 211.724L196.521 211.506L196.071 211.724ZM148.912 329.863C148.654 329.962 148.525 330.251 148.624 330.509L150.234 334.711C150.333 334.969 150.622 335.098 150.88 334.999C151.138 334.9 151.267 334.611 151.168 334.353L149.736 330.618L153.471 329.186C153.729 329.088 153.858 328.798 153.759 328.541C153.66 328.283 153.371 328.154 153.113 328.253L148.912 329.863ZM1.40861 57.5888C1.99617 56.7557 2.58999 55.9321 3.1899 55.118L2.38488 54.5248C1.78084 55.3445 1.18296 56.1737 0.591394 57.0125L1.40861 57.5888ZM6.86139 50.3479C8.12954 48.7702 9.42168 47.2317 10.7365 45.7324L9.98471 45.0731C8.66038 46.5831 7.35904 48.1326 6.08195 49.7215L6.86139 50.3479ZM14.7966 41.3013C16.1973 39.8383 17.6208 38.4168 19.0656 37.0367L18.3749 36.3136C16.9192 37.704 15.4852 39.136 14.0743 40.6098L14.7966 41.3013ZM23.4954 32.9921C25.0225 31.6599 26.5708 30.3712 28.1388 29.1259L27.5169 28.3428C25.9369 29.5977 24.3767 30.8962 22.838 32.2386L23.4954 32.9921ZM32.922 25.5044C34.5631 24.3209 36.2231 23.1826 37.9006 22.0894L37.3546 21.2516C35.6639 22.3534 33.9909 23.5006 32.337 24.6933L32.922 25.5044ZM43.0144 18.9269C44.7538 17.9076 46.5096 16.9347 48.28 16.0082L47.8163 15.1222C46.0318 16.0561 44.262 17.0367 42.5088 18.0641L43.0144 18.9269ZM53.6827 13.3449C55.5065 12.5001 57.3437 11.7027 59.1926 10.9527L58.8167 10.0261C56.9529 10.7821 55.1008 11.5859 53.2623 12.4376L53.6827 13.3449ZM64.8357 8.8228C66.7338 8.15901 68.642 7.54388 70.5586 6.97727L70.2751 6.0183C68.3429 6.58953 66.4191 7.20967 64.5056 7.87886L64.8357 8.8228ZM76.3736 5.41275C78.3288 4.93804 80.2907 4.5129 82.2575 4.13719L82.0699 3.15495C80.0869 3.53375 78.1089 3.96238 76.1376 4.44099L76.3736 5.41275ZM88.189 3.15563C90.1821 2.87636 92.1783 2.64731 94.1755 2.46834L94.0862 1.47233C92.0725 1.65279 90.0598 1.88373 88.0502 2.16531L88.189 3.15563ZM100.179 2.08107C102.187 2.00189 104.194 1.97315 106.198 1.99471L106.209 0.994771C104.188 0.97303 102.164 1.00201 100.14 1.08185L100.179 2.08107ZM112.214 2.21103C114.217 2.33372 116.216 2.50692 118.208 2.73049L118.319 1.73673C116.311 1.51128 114.295 1.33662 112.275 1.2129L112.214 2.21103ZM124.171 3.55383C126.151 3.87877 128.123 4.25411 130.083 4.67971L130.295 3.70248C128.318 3.27326 126.33 2.89473 124.333 2.56703L124.171 3.55383ZM135.93 6.10739C137.865 6.63282 139.787 7.20826 141.694 7.83354L142.005 6.88331C140.082 6.25265 138.143 5.67228 136.192 5.14235L135.93 6.10739ZM147.363 9.85664C149.231 10.5788 151.083 11.3502 152.917 12.1709L153.325 11.2582C151.476 10.4304 149.608 9.65223 147.723 8.92386L147.363 9.85664ZM158.341 14.771C160.125 15.6845 161.889 16.6464 163.631 17.6567L164.133 16.7917C162.376 15.7726 160.596 14.8023 158.797 13.8809L158.341 14.771ZM168.747 20.8063C170.422 21.8995 172.074 23.0398 173.701 24.2271L174.291 23.4194C172.65 22.2217 170.983 21.0715 169.293 19.9687L168.747 20.8063ZM178.467 27.9009C180.015 29.1599 181.536 30.4642 183.03 31.8136L183.7 31.0717C182.194 29.7106 180.659 28.395 179.098 27.1251L178.467 27.9009ZM187.402 35.9759C188.805 37.3837 190.181 38.8345 191.526 40.3283L192.269 39.6592C190.913 38.1527 189.526 36.6896 188.11 35.2698L187.402 35.9759ZM195.445 44.9109C196.7 46.4554 197.924 48.041 199.117 49.6674L199.923 49.0763C198.721 47.4364 197.487 45.8377 196.221 44.2803L195.445 44.9109ZM202.554 54.6068C203.652 56.2711 204.719 57.9742 205.752 59.716L206.613 59.2058C205.571 57.4502 204.496 55.7336 203.388 54.0558L202.554 54.6068ZM208.693 64.9492C209.632 66.7141 210.537 68.5154 211.408 70.353L212.312 69.9245C211.434 68.0732 210.522 66.2582 209.576 64.4798L208.693 64.9492ZM213.853 75.8193C214.63 77.6649 215.374 79.5444 216.084 81.4577L217.021 81.11C216.307 79.1832 215.557 77.2902 214.775 75.4312L213.853 75.8193ZM218.044 87.1027C218.663 89.0092 219.248 90.9471 219.8 92.9162L220.763 92.6466C220.208 90.6645 219.618 88.7136 218.996 86.7941L218.044 87.1027ZM221.298 98.6954C221.763 100.644 222.196 102.621 222.596 104.627L223.577 104.432C223.174 102.413 222.739 100.424 222.27 98.4631L221.298 98.6954ZM223.658 110.508C223.978 112.481 224.267 114.479 224.523 116.505L225.516 116.379C225.258 114.342 224.967 112.332 224.645 110.348L223.658 110.508ZM225.178 122.468C225.363 124.449 225.517 126.453 225.641 128.482L226.639 128.421C226.514 126.382 226.359 124.367 226.174 122.375L225.178 122.468ZM225.915 134.52C225.974 136.495 226.005 138.493 226.007 140.511L227.007 140.51C227.005 138.482 226.974 136.475 226.914 134.49L225.915 134.52ZM225.924 146.627C225.869 148.586 225.788 150.563 225.679 152.56L226.678 152.615C226.787 150.609 226.869 148.622 226.923 146.655L225.924 146.627ZM225.27 158.609C225.188 159.627 225.098 160.65 225.002 161.677L225.998 161.77C226.094 160.739 226.184 159.712 226.266 158.69L225.27 158.609ZM225.002 161.677C224.914 162.623 224.817 163.577 224.713 164.538L225.707 164.646C225.812 163.68 225.909 162.721 225.998 161.77L225.002 161.677ZM224.012 170.3C223.757 172.196 223.475 174.113 223.169 176.045L224.157 176.202C224.464 174.262 224.747 172.338 225.003 170.434L224.012 170.3ZM222.198 181.771C221.856 183.665 221.493 185.569 221.11 187.477L222.09 187.674C222.475 185.759 222.839 183.849 223.182 181.949L222.198 181.771ZM219.911 193.16C219.495 195.048 219.06 196.936 218.608 198.819L219.581 199.053C220.034 197.163 220.47 195.269 220.888 193.376L219.911 193.16ZM217.204 204.452C216.717 206.331 216.214 208.202 215.698 210.058L216.661 210.326C217.179 208.464 217.683 206.588 218.172 204.702L217.204 204.452ZM214.089 215.639C213.53 217.51 212.958 219.362 212.374 221.188L213.326 221.493C213.912 219.66 214.486 217.802 215.047 215.925L214.089 215.639ZM210.548 226.702C209.911 228.56 209.262 230.386 208.603 232.172L209.541 232.518C210.203 230.724 210.854 228.892 211.494 227.026L210.548 226.702ZM206.527 237.59C205.794 239.43 205.052 241.216 204.303 242.942L205.22 243.34C205.974 241.605 206.72 239.809 207.456 237.961L206.527 237.59ZM201.907 248.203C201.034 250.025 200.155 251.758 199.274 253.389L200.154 253.864C201.043 252.217 201.93 250.47 202.809 248.635L201.907 248.203ZM196.356 258.397C195.249 260.145 194.147 261.712 193.055 263.078L193.836 263.702C194.955 262.302 196.079 260.705 197.201 258.932L196.356 258.397ZM189.099 267.153C187.338 268.555 185.676 269.289 184.133 269.34L184.167 270.34C186.003 270.278 187.868 269.412 189.722 267.935L189.099 267.153ZM179.474 267.094C178.434 265.968 177.43 264.391 176.482 262.306L175.572 262.72C176.548 264.868 177.605 266.545 178.739 267.773L179.474 267.094ZM174.522 256.968C174.018 255.291 173.54 253.43 173.091 251.376L172.114 251.589C172.568 253.665 173.052 255.551 173.565 257.256L174.522 256.968ZM172.008 245.7C171.848 244.74 171.693 243.749 171.544 242.724L170.554 242.869C170.704 243.899 170.86 244.898 171.021 245.864L172.008 245.7ZM171.544 242.724C171.388 241.657 171.24 240.598 171.1 239.549L170.109 239.681C170.249 240.734 170.398 241.797 170.554 242.869L171.544 242.724ZM170.337 233.211C170.105 231.037 169.91 228.913 169.75 226.847L168.753 226.924C168.913 229 169.11 231.134 169.343 233.317L170.337 233.211ZM169.366 220.474C169.272 218.266 169.225 216.142 169.224 214.111L168.224 214.111C168.225 216.157 168.273 218.296 168.367 220.517L169.366 220.474ZM169.39 207.746C169.517 205.458 169.717 203.338 169.989 201.403L168.999 201.264C168.723 203.231 168.52 205.379 168.392 207.69L169.39 207.746ZM171.288 195.224C172.043 192.742 172.986 190.916 174.084 189.783L173.366 189.087C172.11 190.383 171.107 192.383 170.332 194.933L171.288 195.224ZM179.337 188.998C180.739 189.676 182.322 190.961 184.079 192.953L184.829 192.291C183.026 190.247 181.341 188.857 179.773 188.098L179.337 188.998ZM187.889 198.006C188.948 199.599 190.051 201.404 191.196 203.43L192.066 202.938C190.911 200.894 189.796 199.069 188.722 197.452L187.889 198.006ZM194.186 209.038C194.658 209.971 195.136 210.939 195.621 211.941L196.521 211.506C196.034 210.498 195.553 209.525 195.079 208.587L194.186 209.038ZM195.621 211.941C196.057 212.844 196.491 213.746 196.924 214.648L197.826 214.215C197.393 213.313 196.958 212.41 196.521 211.506L195.621 211.941ZM199.497 220.051C200.355 221.867 201.205 223.679 202.045 225.487L202.951 225.066C202.111 223.256 201.26 221.441 200.401 219.624L199.497 220.051ZM204.55 230.933C205.381 232.756 206.201 234.574 207.008 236.383L207.921 235.976C207.113 234.164 206.292 232.344 205.46 230.519L204.55 230.933ZM209.428 241.879C210.232 243.725 211.021 245.563 211.794 247.39L212.714 247C211.94 245.17 211.15 243.329 210.345 241.48L209.428 241.879ZM214.092 252.909C214.857 254.774 215.603 256.627 216.328 258.465L217.259 258.098C216.531 256.255 215.784 254.399 215.018 252.53L214.092 252.909ZM218.494 264.065C219.21 265.956 219.902 267.83 220.568 269.684L221.509 269.346C220.841 267.486 220.147 265.607 219.43 263.712L218.494 264.065ZM222.537 275.323C223.185 277.24 223.803 279.133 224.389 281.001L225.344 280.701C224.755 278.826 224.134 276.926 223.484 275.002L222.537 275.323ZM226.114 286.75C226.675 288.712 227.195 290.641 227.672 292.535L228.642 292.291C228.162 290.386 227.639 288.447 227.076 286.475L226.114 286.75ZM229.029 298.362C229.454 300.366 229.825 302.324 230.137 304.232L231.124 304.07C230.809 302.146 230.436 300.172 230.007 298.154L229.029 298.362ZM230.932 310.144C231.143 312.197 231.274 314.178 231.319 316.084L232.319 316.06C232.273 314.125 232.141 312.118 231.927 310.042L230.932 310.144ZM231.159 322.004C230.987 324.07 230.686 326.018 230.25 327.842L231.223 328.075C231.672 326.196 231.98 324.197 232.156 322.088L231.159 322.004ZM228.309 333.402C227.439 335.206 226.372 336.827 225.096 338.253L225.842 338.92C227.185 337.419 228.302 335.719 229.21 333.837L228.309 333.402ZM220.614 341.948C219.02 342.905 217.228 343.687 215.223 344.281L215.507 345.239C217.586 344.624 219.457 343.809 221.128 342.805L220.614 341.948ZM209.479 345.396C207.644 345.592 205.678 345.67 203.574 345.623L203.551 346.623C205.694 346.671 207.703 346.592 209.585 346.391L209.479 345.396ZM197.646 345.201C195.768 344.983 193.8 344.683 191.74 344.297L191.556 345.28C193.637 345.67 195.628 345.974 197.531 346.194L197.646 345.201ZM185.846 343.021C184.01 342.573 182.11 342.066 180.145 341.497L179.867 342.457C181.845 343.03 183.759 343.541 185.609 343.993L185.846 343.021ZM174.463 339.742C172.603 339.132 170.69 338.474 168.724 337.764L168.385 338.705C170.36 339.418 172.282 340.079 174.152 340.692L174.463 339.742ZM163.204 335.695C161.386 334.989 159.526 334.242 157.622 333.455L157.24 334.379C159.15 335.169 161.017 335.918 162.842 336.627L163.204 335.695ZM152.128 331.122C151.193 330.715 150.248 330.299 149.294 329.874L148.887 330.787C149.844 331.213 150.791 331.631 151.729 332.039L152.128 331.122Z" fill="#0062C9"/>
</svg>
