<svg width="196" height="234" viewBox="0 0 196 234" fill="none" xmlns="http://www.w3.org/2000/svg">
<path d="M168 171L168.427 171.259L168 171ZM0.50228 217.548C0.47583 217.273 0.67725 217.029 0.952112 217.002L5.43146 216.571C5.70633 216.545 5.95059 216.746 5.97702 217.021C6.00345 217.296 5.80205 217.54 5.52717 217.567L1.54553 217.95L1.92838 221.931C1.95481 222.206 1.75341 222.45 1.47853 222.477C1.20365 222.503 0.9594 222.302 0.932976 222.027L0.50228 217.548ZM189.98 0.855399C190.252 1.7599 190.516 2.69423 190.77 3.65703L189.803 3.91212C189.552 2.95983 189.291 2.03667 189.022 1.14392L189.98 0.855399ZM192.098 9.35851C192.476 11.1999 192.826 13.1195 193.146 15.1103L192.159 15.2692C191.84 13.2914 191.493 11.3859 191.118 9.55963L192.098 9.35851ZM193.973 20.9143C194.208 22.8003 194.42 24.7378 194.608 26.722L193.613 26.8163C193.426 24.8415 193.215 22.914 192.98 21.0384L193.973 20.9143ZM195.081 32.5372C195.211 34.4456 195.321 36.3901 195.409 38.3666L194.41 38.4112C194.322 36.4422 194.213 34.5057 194.083 32.6053L195.081 32.5372ZM195.605 44.2036C195.648 46.1258 195.673 48.0735 195.677 50.0435L194.677 50.0458C194.673 48.0825 194.649 46.1417 194.605 44.2263L195.605 44.2036ZM195.634 55.8833C195.601 57.8124 195.549 59.7592 195.479 61.7208L194.48 61.685C194.55 59.7295 194.601 57.789 194.634 55.8662L195.634 55.8833ZM195.216 67.5541C195.112 69.4859 194.989 71.4292 194.848 73.3814L193.851 73.3094C193.991 71.3632 194.113 69.4258 194.218 67.5L195.216 67.5541ZM194.375 79.2012C194.201 81.1327 194.008 83.0703 193.798 85.0116L192.803 84.9037C193.013 82.9684 193.205 81.0368 193.379 79.1112L194.375 79.2012ZM193.115 90.8107C192.87 92.7388 192.607 94.6682 192.326 96.5964L191.336 96.452C191.617 94.53 191.879 92.6068 192.123 90.6847L193.115 90.8107ZM191.427 102.366C191.109 104.288 190.772 106.206 190.417 108.118L189.433 107.935C189.788 106.029 190.124 104.118 190.441 102.203L191.427 102.366ZM189.289 113.848C188.893 115.759 188.477 117.661 188.041 119.553L187.066 119.329C187.501 117.444 187.915 115.549 188.31 113.645L189.289 113.848ZM186.665 125.229C186.182 127.124 185.679 129.006 185.155 130.872L184.192 130.601C184.714 128.743 185.215 126.87 185.696 124.982L186.665 125.229ZM183.501 136.475C182.922 138.347 182.32 140.201 181.695 142.032L180.749 141.709C181.37 139.887 181.969 138.043 182.546 136.179L183.501 136.475ZM179.725 147.535C179.033 149.375 178.317 151.188 177.577 152.972L176.653 152.589C177.389 150.816 178.101 149.013 178.789 147.183L179.725 147.535ZM175.236 158.333C174.413 160.124 173.563 161.88 172.685 163.598L171.794 163.143C172.666 161.438 173.51 159.694 174.327 157.915L175.236 158.333ZM169.903 168.748C169.419 169.597 168.927 170.434 168.427 171.259L167.572 170.741C168.067 169.923 168.555 169.093 169.035 168.252L169.903 168.748ZM168.427 171.259C167.898 172.133 167.363 172.996 166.822 173.848L165.978 173.312C166.515 172.466 167.047 171.609 167.572 170.741L168.427 171.259ZM163.492 178.855C162.329 180.524 161.142 182.149 159.932 183.73L159.138 183.122C160.338 181.553 161.517 179.94 162.672 178.283L163.492 178.855ZM156.151 188.445C154.844 190 153.514 191.509 152.163 192.972L151.428 192.293C152.769 190.842 154.088 189.345 155.385 187.801L156.151 188.445ZM147.971 197.301C146.527 198.723 145.063 200.097 143.579 201.423L142.912 200.678C144.384 199.362 145.837 197.999 147.269 196.589L147.971 197.301ZM138.98 205.339C137.402 206.617 135.807 207.846 134.195 209.026L133.604 208.219C135.203 207.048 136.786 205.83 138.35 204.562L138.98 205.339ZM129.238 212.472C127.547 213.587 125.841 214.653 124.122 215.67L123.612 214.81C125.318 213.801 127.01 212.743 128.688 211.637L129.238 212.472ZM118.857 218.616C117.067 219.561 115.266 220.456 113.457 221.303L113.033 220.398C114.828 219.557 116.615 218.669 118.39 217.731L118.857 218.616ZM107.935 223.73C106.064 224.5 104.187 225.221 102.305 225.894L101.969 224.953C103.835 224.285 105.698 223.57 107.554 222.806L107.935 223.73ZM96.5799 227.794C94.6438 228.387 92.7062 228.932 90.77 229.43L90.521 228.461C92.4426 227.967 94.3655 227.427 96.287 226.838L96.5799 227.794ZM84.8927 230.8C82.9097 231.216 80.9313 231.583 78.9604 231.905L78.7992 230.918C80.7556 230.599 82.7194 230.234 84.6876 229.821L84.8927 230.8ZM72.9854 232.745C70.9709 232.983 68.9678 233.174 66.9794 233.32L66.9063 232.323C68.8801 232.178 70.8685 231.988 72.8681 231.752L72.9854 232.745ZM60.9545 233.628C58.9231 233.686 56.9112 233.698 54.9226 233.666L54.9387 232.666C56.9124 232.698 58.9093 232.686 60.9257 232.628L60.9545 233.628ZM48.8965 233.431C46.8616 233.305 44.8567 233.132 42.886 232.916L42.9951 231.922C44.95 232.136 46.9393 232.308 48.9584 232.433L48.8965 233.431ZM36.8963 232.108C34.8697 231.783 32.8873 231.411 30.9544 230.995L31.1649 230.017C33.0802 230.43 35.0452 230.799 37.0547 231.121L36.8963 232.108ZM25.0847 229.555C23.0961 229.006 21.1728 228.407 19.3217 227.764L19.6498 226.819C21.4798 227.455 23.3826 228.047 25.3513 228.592L25.0847 229.555ZM13.6873 225.574C11.7624 224.739 9.94021 223.852 8.23119 222.917L8.71088 222.04C10.3914 222.959 12.1861 223.833 14.0852 224.656L13.6873 225.574ZM3.08757 219.723C2.24315 219.124 1.44054 218.511 0.681893 217.886L1.31805 217.114C2.05692 217.723 2.84016 218.321 3.66594 218.907L3.08757 219.723Z" fill="#0062C9"/>
</svg>
