<svg width="245" height="168" viewBox="0 0 245 168" fill="none" xmlns="http://www.w3.org/2000/svg">
<path d="M58.5 61.0002L58.4196 61.4937L58.5 61.0002ZM147.5 84.5002L147.222 84.9158L147.259 84.9406L147.3 84.9584L147.5 84.5002ZM58.5 137L58.9514 137.215L58.5 137ZM244.136 13.4814C244.402 13.4064 244.556 13.1302 244.481 12.8644L243.26 8.53343C243.185 8.26765 242.909 8.11297 242.643 8.18793C242.377 8.26289 242.222 8.53911 242.297 8.80489L243.383 12.6547L239.533 13.7405C239.268 13.8155 239.113 14.0917 239.188 14.3575C239.263 14.6233 239.539 14.7779 239.805 14.703L244.136 13.4814ZM8.98631 166.884C8.75627 165.92 8.52519 164.936 8.29421 163.932L7.31969 164.157C7.55131 165.163 7.78301 166.15 8.01363 167.116L8.98631 166.884ZM6.97692 157.973C6.56571 156.03 6.16203 154.035 5.77271 151.998L4.79049 152.186C5.18113 154.229 5.58612 156.231 5.99858 158.18L6.97692 157.973ZM4.69079 145.986C4.35706 144.005 4.04186 141.996 3.75084 139.967L2.76097 140.109C3.05322 142.146 3.3697 144.164 3.70469 146.152L4.69079 145.986ZM2.96688 133.923C2.73439 131.91 2.53034 129.886 2.36 127.858L1.36351 127.942C1.53478 129.98 1.73988 132.015 1.97348 134.038L2.96688 133.923ZM1.95568 121.781C1.8574 119.744 1.79857 117.712 1.78453 115.693L0.784556 115.7C0.798701 117.734 0.85795 119.78 0.956839 121.829L1.95568 121.781ZM1.88511 109.609C1.9697 107.564 2.10755 105.542 2.30444 103.551L1.3093 103.453C1.11038 105.464 0.971282 107.505 0.885969 109.567L1.88511 109.609ZM3.10469 97.523C3.44754 95.4963 3.86292 93.5151 4.35756 91.5895L3.389 91.3407C2.88683 93.2957 2.46581 95.3043 2.1187 97.3562L3.10469 97.523ZM6.15128 85.8118C6.86265 83.8878 7.67229 82.0398 8.58827 80.2798L7.70122 79.8181C6.76433 81.6183 5.93803 83.505 5.21334 85.465L6.15128 85.8118ZM11.751 75.1556C12.9373 73.529 14.2475 72.0104 15.6907 70.6131L14.9951 69.8947C13.5088 71.3336 12.1614 72.8958 10.943 74.5663L11.751 75.1556ZM20.3625 66.8428C21.9873 65.7582 23.7412 64.7934 25.6329 63.9602L25.2298 63.0451C23.2859 63.9012 21.481 64.8939 19.8074 66.011L20.3625 66.8428ZM31.3326 61.9717C33.1882 61.4771 35.1523 61.088 37.2303 60.8125L37.0989 59.8211C34.9806 60.102 32.9743 60.4992 31.075 61.0055L31.3326 61.9717ZM43.2533 60.3469C45.1866 60.2963 47.2044 60.3318 49.3099 60.4581L49.3698 59.4599C47.2374 59.332 45.1908 59.2958 43.2271 59.3472L43.2533 60.3469ZM55.3471 61.0413C56.3534 61.1732 57.3775 61.3239 58.4196 61.4937L58.5804 60.5067C57.5283 60.3353 56.494 60.1831 55.4771 60.0498L55.3471 61.0413ZM58.4196 61.4937C59.3908 61.6519 60.352 61.8102 61.3034 61.9685L61.4675 60.9821C60.515 60.8236 59.5527 60.6651 58.5804 60.5067L58.4196 61.4937ZM66.9872 62.9345C68.9225 63.2705 70.8141 63.6063 72.6631 63.9416L72.8415 62.9577C70.9901 62.6219 69.0959 62.2857 67.1582 61.9492L66.9872 62.9345ZM78.3331 64.9934C80.2715 65.3612 82.1592 65.728 83.9974 66.0935L84.1924 65.1127C82.3513 64.7466 80.4608 64.3792 78.5195 64.0109L78.3331 64.9934ZM89.654 67.2459C91.5952 67.6512 93.4759 68.0543 95.2976 68.4545L95.5122 67.4778C93.687 67.0768 91.8029 66.673 89.8583 66.267L89.654 67.2459ZM100.919 69.7232C102.854 70.1719 104.715 70.6162 106.503 71.0553L106.742 70.0841C104.949 69.644 103.084 69.1987 101.145 68.7491L100.919 69.7232ZM112.119 72.4767C114.064 72.9843 115.91 73.4834 117.662 73.9724L117.931 73.0092C116.173 72.5186 114.322 72.0182 112.372 71.5091L112.119 72.4767ZM123.216 75.5801C125.192 76.1739 127.022 76.7489 128.714 77.302L129.025 76.3515C127.325 75.7958 125.487 75.2185 123.504 74.6224L123.216 75.5801ZM134.139 79.1629C136.208 79.9094 137.989 80.5992 139.512 81.2225L139.891 80.2971C138.354 79.6681 136.56 78.9733 134.479 78.2223L134.139 79.1629ZM144.764 83.5711C145.643 84.0086 146.263 84.3481 146.66 84.5765C146.858 84.6908 147.002 84.7772 147.094 84.8343C147.14 84.8629 147.173 84.8841 147.194 84.8977C147.205 84.9046 147.212 84.9095 147.217 84.9125C147.219 84.914 147.221 84.9151 147.222 84.9156C147.222 84.9159 147.222 84.9161 147.223 84.9161C147.223 84.9161 147.223 84.9161 147.222 84.9161C147.222 84.916 147.222 84.916 147.222 84.916C147.222 84.916 147.222 84.9159 147.222 84.9159C147.222 84.9159 147.222 84.9158 147.5 84.5002C147.778 84.0845 147.778 84.0845 147.778 84.0844C147.778 84.0844 147.778 84.0844 147.778 84.0843C147.778 84.0843 147.777 84.0842 147.777 84.0841C147.777 84.0839 147.777 84.0838 147.776 84.0835C147.776 84.0831 147.775 84.0825 147.774 84.0818C147.772 84.0805 147.769 84.0786 147.766 84.0763C147.758 84.0717 147.748 84.0652 147.735 84.0568C147.709 84.04 147.671 84.0158 147.62 83.9843C147.519 83.9213 147.366 83.8292 147.158 83.7097C146.743 83.4706 146.105 83.1217 145.209 82.6757L144.764 83.5711ZM147.3 84.9584C148.32 85.4033 149.254 85.875 150.108 86.3714L150.611 85.5069C149.721 84.9895 148.751 84.5007 147.7 84.0419L147.3 84.9584ZM154.683 90.0746C156.05 91.6827 156.895 93.4432 157.283 95.3279L158.263 95.1261C157.84 93.0733 156.918 91.1602 155.445 89.427L154.683 90.0746ZM157.161 101.238C156.773 103.052 156.087 104.945 155.135 106.898L156.034 107.336C157.014 105.326 157.73 103.356 158.139 101.448L157.161 101.238ZM152.031 112.165C150.931 113.773 149.684 115.403 148.309 117.045L149.075 117.687C150.469 116.024 151.736 114.368 152.857 112.73L152.031 112.165ZM144.195 121.6C142.811 123.032 141.343 124.464 139.803 125.89L140.482 126.624C142.035 125.186 143.516 123.741 144.914 122.295L144.195 121.6ZM135.197 129.959C133.652 131.263 132.056 132.556 130.415 133.833L131.03 134.622C132.68 133.337 134.287 132.036 135.842 130.723L135.197 129.959ZM125.486 137.528C123.83 138.725 122.142 139.902 120.43 141.053L120.988 141.883C122.709 140.725 124.406 139.542 126.072 138.339L125.486 137.528ZM115.265 144.409C113.522 145.502 111.765 146.565 110.001 147.594L110.505 148.457C112.278 147.423 114.044 146.355 115.796 145.257L115.265 144.409ZM104.627 150.61C102.796 151.598 100.968 152.543 99.1502 153.442L99.5933 154.338C101.422 153.434 103.261 152.483 105.102 151.49L104.627 150.61ZM93.5733 156.065C91.6527 156.921 89.7559 157.716 87.8942 158.444L88.2583 159.376C90.1354 158.642 92.0466 157.84 93.9805 156.978L93.5733 156.065ZM82.1067 160.524C80.0712 161.187 78.0989 161.752 76.2067 162.21L76.4418 163.182C78.3621 162.717 80.3594 162.145 82.4164 161.475L82.1067 160.524ZM70.216 163.325C68.0084 163.595 65.9767 163.664 64.1558 163.514L64.074 164.511C65.9777 164.667 68.0793 164.594 70.3375 164.317L70.216 163.325ZM58.4789 161.951C56.7617 160.977 55.5157 159.548 54.824 157.592L53.8812 157.925C54.6557 160.115 56.0653 161.731 57.9854 162.821L58.4789 161.951ZM54.2807 151.8C54.4425 150.053 54.8431 148.084 55.5096 145.879L54.5524 145.589C53.8709 147.844 53.4542 149.88 53.285 151.708L54.2807 151.8ZM57.6158 140.168C58.0221 139.216 58.4669 138.233 58.9514 137.215L58.0485 136.785C57.5586 137.814 57.1082 138.81 56.6962 139.775L57.6158 140.168ZM58.9514 137.215C59.3832 136.308 59.8168 135.404 60.2524 134.501L59.3518 134.067C58.9155 134.971 58.4811 135.877 58.0485 136.785L58.9514 137.215ZM62.888 129.114C63.7806 127.314 64.6807 125.524 65.5883 123.744L64.6974 123.29C63.7881 125.073 62.8863 126.867 61.9921 128.67L62.888 129.114ZM68.3435 118.417C69.2761 116.639 70.2163 114.872 71.1639 113.117L70.284 112.642C69.3344 114.4 68.3924 116.171 67.4579 117.952L68.3435 118.417ZM74.0507 107.849C75.0251 106.097 76.0071 104.358 76.9966 102.633L76.1291 102.135C75.1374 103.864 74.1533 105.607 73.1768 107.363L74.0507 107.849ZM80.0223 97.4382C81.0459 95.7085 82.0772 93.9936 83.116 92.2942L82.2628 91.7727C81.2215 93.4762 80.1877 95.1952 79.1617 96.9289L80.0223 97.4382ZM86.2761 87.2103C87.3532 85.5065 88.4381 83.8197 89.5306 82.1507L88.6939 81.603C87.5984 83.2765 86.5107 84.9677 85.4309 86.676L86.2761 87.2103ZM92.8582 77.1583C93.9849 75.4984 95.1196 73.8577 96.2619 72.2371L95.4446 71.661C94.2987 73.2865 93.1608 74.932 92.0308 76.5967L92.8582 77.1583ZM99.7735 67.3529C100.964 65.7296 102.163 64.1285 103.369 62.5505L102.575 61.943C101.364 63.5265 100.162 65.1329 98.9672 66.7614L99.7735 67.3529ZM107.053 57.8364C108.312 56.2602 109.58 54.7094 110.855 53.185L110.088 52.5433C108.808 54.0736 107.536 55.6303 106.272 57.2122L107.053 57.8364ZM114.763 48.6282C116.091 47.1169 117.429 45.6345 118.774 44.1822L118.041 43.5026C116.689 44.9614 115.346 46.4503 114.012 47.968L114.763 48.6282ZM122.9 39.8511C124.314 38.408 125.737 36.9986 127.169 35.6239L126.477 34.9025C125.037 36.2844 123.607 37.701 122.186 39.1511L122.9 39.8511ZM131.561 31.542C133.059 30.1956 134.566 28.8877 136.082 27.6195L135.441 26.8525C133.915 28.1285 132.399 29.4442 130.893 30.7982L131.561 31.542ZM140.739 23.8724C142.334 22.6393 143.938 21.4507 145.552 20.308L144.974 19.4918C143.349 20.6429 141.733 21.8399 140.127 23.0813L140.739 23.8724ZM150.52 16.9558C152.216 15.8681 153.921 14.8315 155.635 13.8478L155.138 12.9804C153.408 13.9726 151.689 15.0178 149.98 16.1141L150.52 16.9558ZM160.899 11.0107C162.692 10.1061 164.495 9.25982 166.308 8.47359L165.91 7.55615C164.079 8.35029 162.258 9.20482 160.448 10.1178L160.899 11.0107ZM171.857 6.26733C173.74 5.58664 175.633 4.97127 177.536 4.42319L177.259 3.46226C175.335 4.01662 173.421 4.63886 171.518 5.3269L171.857 6.26733ZM183.328 2.97123C185.278 2.55489 187.239 2.20985 189.21 1.93814L189.073 0.947517C187.078 1.22261 185.093 1.57191 183.119 1.99325L183.328 2.97123ZM195.148 1.34523C197.127 1.22291 199.115 1.17514 201.112 1.20394L201.126 0.204044C199.104 0.174871 197.09 0.223261 195.087 0.347131L195.148 1.34523ZM207.068 1.51635C209.031 1.69399 211.003 1.94623 212.984 2.27501L213.147 1.28851C211.142 0.955698 209.146 0.700299 207.158 0.520419L207.068 1.51635ZM218.832 3.46414C220.744 3.92426 222.663 4.45627 224.591 5.06188L224.89 4.10787C222.942 3.49553 221 2.95742 219.066 2.4919L218.832 3.46414ZM230.245 7.04296C232.071 7.7488 233.903 8.52121 235.742 9.36162L236.158 8.45211C234.301 7.60357 232.45 6.8234 230.605 6.11023L230.245 7.04296ZM241.09 11.9895C241.977 12.4558 242.866 12.9381 243.756 13.4364L244.244 12.5639C243.347 12.0613 242.451 11.5748 241.556 11.1043L241.09 11.9895Z" fill="#0062C9"/>
</svg>
